<svg width="1200" height="800" viewBox="0 0 1200 800" fill="none" xmlns="http://www.w3.org/2000/svg" role="img">
  <defs>
    <linearGradient id="bgg" x1="0" y1="0" x2="0.4" y2="1">
      <stop offset="0%" stop-color="#eef6fc"/><stop offset="100%" stop-color="#cbe0f2"/>
    </linearGradient>
    <linearGradient id="cyg" x1="0" y1="0" x2="1" y2="1">
      <stop offset="0%" stop-color="#00c3ff"/><stop offset="100%" stop-color="#0082ab"/>
    </linearGradient>
    <linearGradient id="glg" x1="0" y1="0" x2="0" y2="1">
      <stop offset="0%" stop-color="#ffffff" stop-opacity="0.10"/>
      <stop offset="100%" stop-color="#ffffff" stop-opacity="0.02"/>
    </linearGradient>
    <radialGradient id="gwg"><stop offset="0%" stop-color="#00c3ff" stop-opacity="0.30"/>
      <stop offset="100%" stop-color="#00c3ff" stop-opacity="0"/></radialGradient>
    <pattern id="grg" width="48" height="48" patternUnits="userSpaceOnUse">
      <path d="M48 0H0V48" stroke="#011f4b" stroke-opacity="0.06" stroke-width="1.5" fill="none"/>
    </pattern>
  </defs>
  <rect width="1200" height="800" fill="url(#bgg)"/>
  <rect width="1200" height="800" fill="url(#grg)"/>
  <circle cx="940" cy="170" r="300" fill="url(#gwg)"/>
  <circle cx="200" cy="660" r="260" fill="url(#gwg)"/>
  <rect x="110" y="130" width="980" height="540" rx="26" fill="#ffffff" fill-opacity="1" stroke="#8fb6d8" stroke-width="3"/>
  <path d="M110 194h980" stroke="#8fb6d8" stroke-width="3"/>
  <circle cx="148" cy="162" r="8" fill="#00c3ff" fill-opacity="1"/>
  <circle cx="174" cy="162" r="8" fill="#4d7299" fill-opacity="0.4"/>
  <circle cx="200" cy="162" r="8" fill="#4d7299" fill-opacity="0.3"/>
  <rect x="240" y="156" width="160" height="14" rx="7" fill="#4d7299" fill-opacity="0.25"/>
  <rect x="150" y="232" width="290" height="150" rx="20" fill="#e7f0f9" fill-opacity="1" stroke="#8fb6d8" stroke-width="2"/>
  <rect x="460" y="232" width="290" height="150" rx="20" fill="#e7f0f9" fill-opacity="1" stroke="#8fb6d8" stroke-width="2"/>
  <rect x="770" y="232" width="280" height="150" rx="20" fill="#e7f0f9" fill-opacity="1" stroke="#8fb6d8" stroke-width="2"/>
  <rect x="182" y="264" width="80" height="10" rx="7" fill="#4d7299" fill-opacity="0.35"/>
  <rect x="492" y="264" width="80" height="10" rx="7" fill="#4d7299" fill-opacity="0.35"/>
  <rect x="802" y="264" width="80" height="10" rx="7" fill="#4d7299" fill-opacity="0.35"/>
  <rect x="182" y="290" width="130" height="32" rx="10" fill="url(#cyg)"/>
  <rect x="492" y="290" width="110" height="32" rx="10" fill="#4d7299" fill-opacity="0.45"/>
  <rect x="802" y="290" width="150" height="32" rx="10" fill="#4d7299" fill-opacity="0.45"/>
  <rect x="182" y="340" width="180" height="10" rx="7" fill="#4d7299" fill-opacity="0.25"/>
  <rect x="492" y="340" width="180" height="10" rx="7" fill="#4d7299" fill-opacity="0.25"/>
  <rect x="802" y="340" width="170" height="10" rx="7" fill="#4d7299" fill-opacity="0.25"/>
  <rect x="150" y="412" width="600" height="226" rx="20" fill="#e7f0f9" fill-opacity="1" stroke="#8fb6d8" stroke-width="2"/>
  <rect x="182" y="444" width="140" height="12" rx="7" fill="#00c3ff" fill-opacity="0.9"/>
  <path d="M182 592l104-72 88 42 106-96 138-56" stroke="url(#cyg)" stroke-width="6" stroke-linecap="round" stroke-linejoin="round"/>
  <circle cx="286" cy="520" r="9" fill="#00c3ff" fill-opacity="1"/>
  <circle cx="374" cy="562" r="9" fill="#00c3ff" fill-opacity="1"/>
  <circle cx="480" cy="466" r="9" fill="#00c3ff" fill-opacity="1"/>
  <circle cx="618" cy="410" r="9" fill="#00c3ff" fill-opacity="1"/>
  <path d="M182 614h536" stroke="#8fb6d8" stroke-width="3"/>
  <rect x="770" y="412" width="280" height="226" rx="20" fill="#e7f0f9" fill-opacity="1" stroke="#8fb6d8" stroke-width="2"/>
  <rect x="802" y="444" width="110" height="12" rx="7" fill="#00c3ff" fill-opacity="0.9"/>
  <circle cx="910" cy="546" r="70" stroke="#4d7299" stroke-opacity="0.35" stroke-width="26" fill="none"/>
  <circle cx="910" cy="546" r="70" stroke="url(#cyg)" stroke-width="26" fill="none" stroke-linecap="round" stroke-dasharray="330 440" transform="rotate(-90 910 546)"/>
</svg>
