<svg width="1200" height="800" viewBox="0 0 1200 800" fill="none" xmlns="http://www.w3.org/2000/svg" role="img">
  <defs>
    <linearGradient id="bga" x1="0" y1="0" x2="0.4" y2="1">
      <stop offset="0%" stop-color="#eef6fc"/><stop offset="100%" stop-color="#cbe0f2"/>
    </linearGradient>
    <linearGradient id="cya" x1="0" y1="0" x2="1" y2="1">
      <stop offset="0%" stop-color="#00c3ff"/><stop offset="100%" stop-color="#0082ab"/>
    </linearGradient>
    <linearGradient id="gla" x1="0" y1="0" x2="0" y2="1">
      <stop offset="0%" stop-color="#ffffff" stop-opacity="0.10"/>
      <stop offset="100%" stop-color="#ffffff" stop-opacity="0.02"/>
    </linearGradient>
    <radialGradient id="gwa"><stop offset="0%" stop-color="#00c3ff" stop-opacity="0.30"/>
      <stop offset="100%" stop-color="#00c3ff" stop-opacity="0"/></radialGradient>
    <pattern id="gra" width="48" height="48" patternUnits="userSpaceOnUse">
      <path d="M48 0H0V48" stroke="#011f4b" stroke-opacity="0.06" stroke-width="1.5" fill="none"/>
    </pattern>
  </defs>
  <rect width="1200" height="800" fill="url(#bga)"/>
  <rect width="1200" height="800" fill="url(#gra)"/>
  <circle cx="940" cy="170" r="300" fill="url(#gwa)"/>
  <circle cx="200" cy="660" r="260" fill="url(#gwa)"/>
  <rect x="120" y="120" width="800" height="58" rx="20" fill="#d8e8f5"/>
  <rect x="120" y="150" width="800" height="28" fill="#d8e8f5"/>
  <circle cx="154" cy="149" r="8" fill="#00c3ff" fill-opacity="1"/>
  <circle cx="182" cy="149" r="8" fill="#4d7299" fill-opacity="0.5"/>
  <circle cx="210" cy="149" r="8" fill="#4d7299" fill-opacity="0.3"/>
  <rect x="244" y="141" width="610" height="16" rx="8" fill="#4d7299" fill-opacity="0.25"/>
  <rect x="120" y="178" width="800" height="470" rx="0" fill="#ffffff" fill-opacity="1" stroke="#8fb6d8" stroke-width="3"/>
  <rect x="120" y="120" width="800" height="528" rx="24" fill="none" fill-opacity="1" stroke="#8fb6d8" stroke-width="3"/>
  <rect x="168" y="224" width="210" height="26" rx="13" fill="url(#cya)"/>
  <rect x="168" y="274" width="420" height="16" rx="7" fill="#4d7299" fill-opacity="0.55"/>
  <rect x="168" y="306" width="330" height="16" rx="7" fill="#4d7299" fill-opacity="0.35"/>
  <rect x="168" y="356" width="180" height="52" rx="26" fill="url(#cya)"/>
  <rect x="392" y="356" width="150" height="52" rx="26" fill="none" fill-opacity="1" stroke="#8fb6d8" stroke-width="3"/>
  <rect x="600" y="224" width="272" height="184" rx="18" fill="#e7f0f9" fill-opacity="1" stroke="#8fb6d8" stroke-width="3"/>
  <rect x="632" y="258" width="120" height="12" rx="7" fill="#00c3ff" fill-opacity="0.9"/>
  <rect x="632" y="288" width="200" height="10" rx="7" fill="#4d7299" fill-opacity="0.35"/>
  <rect x="632" y="312" width="170" height="10" rx="7" fill="#4d7299" fill-opacity="0.35"/>
  <rect x="632" y="336" width="190" height="10" rx="7" fill="#4d7299" fill-opacity="0.35"/>
  <rect x="168" y="448" width="220" height="152" rx="18" fill="#e7f0f9" fill-opacity="1" stroke="#8fb6d8" stroke-width="3"/>
  <rect x="408" y="448" width="220" height="152" rx="18" fill="#e7f0f9" fill-opacity="1" stroke="#8fb6d8" stroke-width="3"/>
  <rect x="648" y="448" width="224" height="152" rx="18" fill="#e7f0f9" fill-opacity="1" stroke="#8fb6d8" stroke-width="3"/>
  <circle cx="206" cy="490" r="16" fill="#00c3ff" fill-opacity="1"/>
  <circle cx="446" cy="490" r="16" fill="#4d7299" fill-opacity="0.45"/>
  <circle cx="686" cy="490" r="16" fill="#4d7299" fill-opacity="0.45"/>
  <rect x="196" y="528" width="150" height="12" rx="7" fill="#4d7299" fill-opacity="0.55"/>
  <rect x="436" y="528" width="150" height="12" rx="7" fill="#4d7299" fill-opacity="0.35"/>
  <rect x="676" y="528" width="150" height="12" rx="7" fill="#4d7299" fill-opacity="0.35"/>
  <rect x="196" y="556" width="110" height="10" rx="7" fill="#4d7299" fill-opacity="0.3"/>
  <rect x="436" y="556" width="110" height="10" rx="7" fill="#4d7299" fill-opacity="0.3"/>
  <rect x="676" y="556" width="110" height="10" rx="7" fill="#4d7299" fill-opacity="0.3"/>
  <rect x="966" y="262" width="172" height="340" rx="30" fill="#e7f0f9" fill-opacity="1" stroke="#8fb6d8" stroke-width="3"/>
  <rect x="990" y="298" width="124" height="8" rx="4" fill="#4d7299" fill-opacity="0.3"/>
  <rect x="990" y="328" width="92" height="18" rx="9" fill="url(#cya)"/>
  <rect x="990" y="364" width="124" height="10" rx="7" fill="#4d7299" fill-opacity="0.3"/>
  <rect x="990" y="386" width="100" height="10" rx="7" fill="#4d7299" fill-opacity="0.3"/>
  <rect x="990" y="418" width="124" height="74" rx="14" fill="#ffffff" fill-opacity="1" stroke="#8fb6d8" stroke-width="2"/>
  <rect x="990" y="508" width="124" height="10" rx="7" fill="#4d7299" fill-opacity="0.3"/>
  <rect x="990" y="530" width="90" height="10" rx="7" fill="#4d7299" fill-opacity="0.3"/>
  <rect x="990" y="556" width="124" height="26" rx="13" fill="url(#cya)"/>
</svg>
